<svg xmlns="http://www.w3.org/2000/svg" viewBox="0 0 240 240" width="240" height="240" role="img" aria-label="Article thumbnail">
  <defs>
    <linearGradient id="sky" x1="0" y1="0" x2="0.4" y2="1">
      <stop offset="0" stop-color="#93C5FD"/>
      <stop offset="1" stop-color="#2563EB"/>
    </linearGradient>
  </defs>
  <rect width="240" height="240" fill="url(#sky)"/>
  <circle cx="134" cy="66" r="24" fill="#FDE68A" opacity="0.9"/>
  <path d="M0 140 L58 88 L104 126 L150 72 L198 120 L240 90 L240 240 L0 240 Z" fill="#1D4ED8" opacity="0.55"/>
  <path d="M0 190 L46 156 L96 186 L148 146 L200 182 L240 190 L240 240 L0 240 Z" fill="#1E3A8A" opacity="0.9"/>
  <g fill="#1E3A8A">
    <path d="M44 234 L56 194 L68 234 Z"/>
    <rect x="53" y="232" width="6" height="8"/>
    <path d="M182 228 L192 196 L202 228 Z"/>
    <rect x="189" y="226" width="5" height="8"/>
  </g>
</svg>
