<svg xmlns="http://www.w3.org/2000/svg" viewBox="0 0 240 240" width="240" height="240" role="img" aria-label="Article thumbnail">
  <defs>
    <linearGradient id="sky" x1="0" y1="0" x2="0.4" y2="1">
      <stop offset="0" stop-color="#BEF264"/>
      <stop offset="1" stop-color="#65A30D"/>
    </linearGradient>
  </defs>
  <rect width="240" height="240" fill="url(#sky)"/>
  <circle cx="96" cy="66" r="24" fill="#ECFCCB" opacity="0.9"/>
  <path d="M0 138 L58 86 L104 124 L150 70 L198 118 L240 88 L240 240 L0 240 Z" fill="#4D7C0F" opacity="0.55"/>
  <path d="M0 180 L46 146 L96 176 L148 136 L200 172 L240 180 L240 240 L0 240 Z" fill="#3F6212" opacity="0.9"/>
  <g fill="#3F6212">
    <path d="M44 234 L56 194 L68 234 Z"/>
    <rect x="53" y="232" width="6" height="8"/>
    <path d="M182 228 L192 196 L202 228 Z"/>
    <rect x="189" y="226" width="5" height="8"/>
  </g>
</svg>
